<svg xmlns="http://www.w3.org/2000/svg" xmlns:xlink="http://www.w3.org/1999/xlink" width="40px" height="40px" viewBox="0 0 40 40" version="1.1">
<g>
<path style=" stroke:none;fill-rule:nonzero;fill-opacity:1;" d="M 11.980469 18.773438 C 11.980469 23.503906 15.816406 27.335938 20.542969 27.335938 C 25.273438 27.335938 29.105469 23.503906 29.105469 18.773438 C 29.105469 14.046875 25.273438 10.214844 20.542969 10.214844 C 15.816406 10.21875 11.988281 14.046875 11.980469 18.773438 Z M 20.542969 19.316406 C 19.125 19.324219 17.917969 18.269531 17.738281 16.863281 C 17.554688 15.453125 18.453125 14.128906 19.828125 13.777344 L 19.828125 13.054688 C 19.828125 12.726562 20.09375 12.460938 20.421875 12.460938 C 20.75 12.460938 21.015625 12.726562 21.015625 13.054688 L 21.015625 13.742188 C 22.363281 13.96875 23.34375 15.140625 23.335938 16.503906 C 23.335938 16.828125 23.074219 17.089844 22.75 17.089844 C 22.425781 17.089844 22.164062 16.828125 22.164062 16.503906 C 22.164062 15.609375 21.433594 14.882812 20.539062 14.882812 C 19.644531 14.882812 18.917969 15.613281 18.917969 16.507812 C 18.917969 17.402344 19.648438 18.128906 20.542969 18.128906 C 21.996094 18.136719 23.203125 19.253906 23.324219 20.699219 C 23.449219 22.148438 22.445312 23.449219 21.015625 23.703125 L 21.015625 24.410156 C 21.015625 24.738281 20.75 25.003906 20.421875 25.003906 C 20.09375 25.003906 19.828125 24.738281 19.828125 24.410156 L 19.828125 23.667969 C 18.589844 23.339844 17.722656 22.222656 17.714844 20.941406 C 17.714844 20.609375 17.984375 20.339844 18.316406 20.339844 C 18.644531 20.339844 18.914062 20.609375 18.914062 20.941406 C 18.917969 21.769531 19.542969 22.464844 20.367188 22.554688 C 20.394531 22.546875 20.425781 22.546875 20.457031 22.546875 C 20.503906 22.546875 20.546875 22.550781 20.589844 22.5625 C 21.480469 22.539062 22.1875 21.804688 22.175781 20.914062 C 22.160156 20.023438 21.433594 19.3125 20.542969 19.316406 Z M 20.542969 19.316406 "/>
<path style=" stroke:none;fill-rule:nonzero;fill-opacity:1;" d="M 34.285156 31.417969 C 34.28125 31.421875 34.273438 31.421875 34.269531 31.425781 L 28.761719 34.027344 C 28.820312 34.332031 28.847656 34.640625 28.839844 34.953125 C 28.832031 35.273438 28.566406 35.53125 28.246094 35.53125 C 28.242188 35.53125 28.234375 35.53125 28.230469 35.53125 L 20.167969 35.308594 C 19.839844 35.300781 19.582031 35.027344 19.589844 34.699219 C 19.601562 34.371094 19.875 34.113281 20.199219 34.121094 L 27.609375 34.324219 C 27.363281 32.890625 26.140625 31.824219 24.683594 31.785156 L 19.78125 31.648438 C 18.8125 31.621094 17.863281 31.375 17.003906 30.929688 L 16.503906 30.671875 C 14.054688 29.394531 11.101562 29.5625 8.808594 31.105469 L 8.613281 38.238281 L 9.457031 37.789062 C 10.292969 37.335938 11.273438 37.230469 12.1875 37.488281 L 20.507812 39.824219 C 22.113281 40.152344 23.78125 39.96875 25.269531 39.292969 L 36.800781 31.835938 C 36.144531 31.160156 35.125 30.992188 34.285156 31.417969 Z M 34.285156 31.417969 "/>
<path style=" stroke:none;fill-rule:nonzero;fill-opacity:1;" d="M 3.195312 39.476562 L 3.488281 28.863281 L 7.679688 28.980469 L 7.386719 39.59375 Z M 3.195312 39.476562 "/>
<path style=" stroke:none;fill-rule:nonzero;fill-opacity:1;" d="M 21.101562 7.035156 L 21.101562 0.59375 C 21.101562 0.265625 20.835938 0 20.507812 0 C 20.179688 0 19.914062 0.265625 19.914062 0.59375 L 19.914062 7.035156 C 19.914062 7.363281 20.179688 7.628906 20.507812 7.628906 C 20.835938 7.628906 21.101562 7.363281 21.101562 7.035156 Z M 21.101562 7.035156 "/>
<path style=" stroke:none;fill-rule:nonzero;fill-opacity:1;" d="M 26.1875 7.035156 L 26.1875 3.984375 C 26.1875 3.65625 25.921875 3.390625 25.59375 3.390625 C 25.265625 3.390625 25 3.65625 25 3.984375 L 25 7.035156 C 25 7.363281 25.265625 7.628906 25.59375 7.628906 C 25.921875 7.628906 26.1875 7.363281 26.1875 7.035156 Z M 26.1875 7.035156 "/>
<path style=" stroke:none;fill-rule:nonzero;fill-opacity:1;" d="M 16.015625 7.035156 L 16.015625 3.984375 C 16.015625 3.65625 15.75 3.390625 15.421875 3.390625 C 15.09375 3.390625 14.828125 3.65625 14.828125 3.984375 L 14.828125 7.035156 C 14.828125 7.363281 15.09375 7.628906 15.421875 7.628906 C 15.75 7.628906 16.015625 7.363281 16.015625 7.035156 Z M 16.015625 7.035156 "/>
</g>
</svg>
