<svg xmlns="http://www.w3.org/2000/svg" xmlns:xlink="http://www.w3.org/1999/xlink" width="40pt" height="40pt" viewBox="0 0 40 40" version="1.1">
<g>
<path style=" stroke:none;fill-rule:nonzero;fill-opacity:1;" d="M 29.285156 14.855469 C 26.566406 13.617188 20.832031 13.570312 20 13.570312 C 19.167969 13.570312 13.433594 13.617188 10.714844 14.855469 L 10.714844 8.632812 C 11.144531 8.085938 14.511719 7.144531 20 7.144531 C 25.488281 7.144531 28.855469 8.085938 29.285156 8.632812 Z M 20 17.855469 C 14.714844 17.855469 11.394531 16.984375 10.773438 16.429688 C 11.394531 15.871094 14.714844 15 20 15 C 25.285156 15 28.605469 15.871094 29.226562 16.429688 C 28.605469 16.984375 25.285156 17.855469 20 17.855469 Z M 35.714844 12.855469 L 34.285156 12.855469 L 34.285156 10.714844 C 34.285156 10.320312 34.605469 10 35 10 C 35.394531 10 35.714844 10.320312 35.714844 10.714844 Z M 35.714844 8.675781 L 35.714844 5.613281 L 40 7.144531 Z M 20.011719 0 L 34.285156 5.101562 L 34.285156 8.703125 C 33.835938 8.863281 33.449219 9.171875 33.191406 9.574219 L 30.714844 10.457031 L 30.714844 8.570312 C 30.714844 5.792969 21.097656 5.714844 20 5.714844 C 18.902344 5.714844 9.285156 5.792969 9.285156 8.570312 L 9.285156 10.457031 L 0 7.144531 Z M 20.011719 0 "/>
<path style=" stroke:none;fill-rule:nonzero;fill-opacity:1;" d="M 22.285156 23.550781 C 22.582031 24.640625 22.753906 25.761719 22.800781 26.890625 C 21.179688 26.136719 19.28125 26.3125 17.828125 27.351562 C 17.792969 26.070312 17.628906 24.792969 17.335938 23.542969 C 18.203125 23.5625 19.089844 23.570312 20 23.570312 C 20.78125 23.570312 21.539062 23.5625 22.285156 23.550781 Z M 20.714844 35 C 18.742188 35 17.144531 33.402344 17.144531 31.429688 C 17.144531 29.457031 18.742188 27.855469 20.714844 27.855469 C 22.6875 27.855469 24.285156 29.457031 24.285156 31.429688 C 24.285156 33.398438 22.6875 34.996094 20.714844 35 Z M 0 28.570312 C -0.0742188 26.523438 0.167969 24.476562 0.714844 22.5 C 1.261719 24.476562 1.503906 26.523438 1.429688 28.570312 C 1.503906 30.621094 1.261719 32.667969 0.714844 34.644531 C 0.167969 32.667969 -0.0742188 30.621094 0 28.570312 Z M 2.160156 34.765625 C 2.664062 32.738281 2.898438 30.65625 2.855469 28.570312 C 2.898438 26.484375 2.664062 24.402344 2.160156 22.378906 C 6.699219 23.003906 11.265625 23.382812 15.847656 23.507812 C 16.273438 25.160156 16.46875 26.863281 16.429688 28.570312 C 16.429688 28.675781 16.429688 28.773438 16.425781 28.871094 C 15.566406 30.296875 15.480469 32.054688 16.195312 33.554688 L 16.164062 33.628906 C 11.476562 33.742188 6.800781 34.121094 2.160156 34.765625 Z M 18.148438 40 L 17.625 38.800781 C 17.46875 38.441406 17.050781 38.273438 16.691406 38.429688 L 15.488281 38.960938 L 17.164062 34.945312 C 17.851562 35.640625 18.726562 36.121094 19.6875 36.324219 Z M 24.738281 38.429688 C 24.378906 38.273438 23.957031 38.441406 23.800781 38.800781 L 23.273438 39.988281 L 21.742188 36.320312 C 22.699219 36.117188 23.578125 35.640625 24.265625 34.941406 L 25.9375 38.941406 Z M 39.144531 34.964844 C 34.554688 34.257812 29.925781 33.828125 25.285156 33.679688 L 25.234375 33.554688 C 26.132812 31.664062 25.75 29.410156 24.273438 27.921875 C 24.265625 26.441406 24.09375 24.964844 23.761719 23.523438 C 28.914062 23.40625 34.050781 22.957031 39.144531 22.179688 C 39.472656 22.742188 40 24.96875 40 28.570312 C 40 32.175781 39.472656 34.402344 39.144531 34.964844 Z M 39.144531 34.964844 "/>
</g>
</svg>
