<?xml version="1.0" encoding="UTF-8"?>
<svg xmlns="http://www.w3.org/2000/svg" xmlns:xlink="http://www.w3.org/1999/xlink" width="25px" height="25px" viewBox="0 0 25 25" version="1.1">
<g>
<path style=" stroke:none;fill-rule:nonzero;fill:rgb(0%,0%,0%);fill-opacity:1;" d="M 12.507812 6.574219 L 3.585938 13.929688 C 3.585938 13.9375 3.582031 13.953125 3.578125 13.972656 C 3.574219 13.996094 3.570312 14.011719 3.570312 14.019531 L 3.570312 21.46875 C 3.570312 21.738281 3.667969 21.96875 3.867188 22.167969 C 4.0625 22.363281 4.292969 22.460938 4.5625 22.460938 L 10.523438 22.460938 L 10.523438 16.503906 L 14.496094 16.503906 L 14.496094 22.460938 L 20.453125 22.460938 C 20.722656 22.460938 20.953125 22.363281 21.152344 22.167969 C 21.347656 21.972656 21.445312 21.738281 21.445312 21.46875 L 21.445312 14.019531 C 21.445312 13.980469 21.441406 13.949219 21.429688 13.929688 Z M 12.507812 6.574219 "/>
<path style=" stroke:none;fill-rule:nonzero;fill:rgb(0%,0%,0%);fill-opacity:1;" d="M 24.84375 12.253906 L 21.445312 9.429688 L 21.445312 3.097656 C 21.445312 2.953125 21.398438 2.832031 21.304688 2.742188 C 21.214844 2.648438 21.09375 2.601562 20.949219 2.601562 L 17.96875 2.601562 C 17.824219 2.601562 17.707031 2.648438 17.613281 2.742188 C 17.519531 2.832031 17.472656 2.953125 17.472656 3.097656 L 17.472656 6.121094 L 13.6875 2.957031 C 13.355469 2.6875 12.964844 2.554688 12.507812 2.554688 C 12.054688 2.554688 11.660156 2.6875 11.328125 2.957031 L 0.171875 12.253906 C 0.0703125 12.335938 0.0117188 12.445312 0 12.585938 C -0.0078125 12.726562 0.0273438 12.847656 0.109375 12.949219 L 1.074219 14.097656 C 1.15625 14.191406 1.261719 14.25 1.398438 14.269531 C 1.523438 14.28125 1.648438 14.242188 1.769531 14.160156 L 12.507812 5.207031 L 23.246094 14.160156 C 23.328125 14.234375 23.4375 14.269531 23.570312 14.269531 L 23.617188 14.269531 C 23.753906 14.25 23.859375 14.191406 23.945312 14.097656 L 24.90625 12.949219 C 24.988281 12.847656 25.023438 12.726562 25.015625 12.585938 C 25.003906 12.445312 24.945312 12.335938 24.84375 12.253906 Z M 24.84375 12.253906 "/>
</g>
</svg>
