<?xml version="1.0" encoding="UTF-8"?>
<svg xmlns="http://www.w3.org/2000/svg" xmlns:xlink="http://www.w3.org/1999/xlink" width="25px" height="25px" viewBox="0 0 25 25" version="1.1">
<g>
<path style=" stroke:none;fill-rule:nonzero;fill:rgb(0%,0%,0%);fill-opacity:1;" d="M 12.503906 6.082031 C 8.960938 6.082031 6.089844 8.953125 6.089844 12.496094 C 6.089844 16.039062 8.960938 18.910156 12.503906 18.910156 C 16.050781 18.910156 18.917969 16.039062 18.917969 12.496094 C 18.917969 8.949219 16.046875 6.082031 12.503906 6.082031 Z M 12.503906 16.660156 C 10.203125 16.660156 8.339844 14.796875 8.339844 12.496094 C 8.339844 10.195312 10.203125 8.332031 12.503906 8.332031 C 14.804688 8.332031 16.667969 10.195312 16.667969 12.496094 C 16.667969 14.796875 14.804688 16.660156 12.503906 16.660156 Z M 12.503906 16.660156 "/>
<path style=" stroke:none;fill-rule:nonzero;fill:rgb(0%,0%,0%);fill-opacity:1;" d="M 17.652344 0.078125 C 15.355469 -0.0273438 9.65625 -0.0234375 7.355469 0.078125 C 5.332031 0.175781 3.546875 0.664062 2.109375 2.101562 C -0.292969 4.503906 0.0117188 7.746094 0.0117188 12.496094 C 0.0117188 17.359375 -0.257812 20.523438 2.109375 22.890625 C 4.523438 25.304688 7.808594 24.988281 12.503906 24.988281 C 17.320312 24.988281 18.984375 24.992188 20.6875 24.332031 C 23.003906 23.433594 24.75 21.363281 24.921875 17.644531 C 25.027344 15.34375 25.023438 9.648438 24.921875 7.347656 C 24.714844 2.957031 22.359375 0.296875 17.652344 0.078125 Z M 21.292969 21.300781 C 19.71875 22.875 17.53125 22.734375 12.472656 22.734375 C 7.265625 22.734375 5.175781 22.8125 3.652344 21.285156 C 1.898438 19.539062 2.214844 16.730469 2.214844 12.480469 C 2.214844 6.722656 1.625 2.578125 7.402344 2.285156 C 8.726562 2.238281 9.117188 2.222656 12.460938 2.222656 L 12.507812 2.253906 C 18.058594 2.253906 22.414062 1.671875 22.675781 7.445312 C 22.734375 8.761719 22.746094 9.160156 22.746094 12.496094 C 22.746094 17.644531 22.84375 19.742188 21.292969 21.300781 Z M 21.292969 21.300781 "/>
<path style=" stroke:none;fill-rule:nonzero;fill:rgb(0%,0%,0%);fill-opacity:1;" d="M 20.671875 5.828125 C 20.671875 6.65625 20 7.328125 19.171875 7.328125 C 18.34375 7.328125 17.675781 6.65625 17.675781 5.828125 C 17.675781 5 18.34375 4.328125 19.171875 4.328125 C 20 4.328125 20.671875 5 20.671875 5.828125 Z M 20.671875 5.828125 "/>
</g>
</svg>
