<?xml version="1.0" encoding="UTF-8"?>
<svg xmlns="http://www.w3.org/2000/svg" xmlns:xlink="http://www.w3.org/1999/xlink" width="25px" height="25px" viewBox="0 0 25 25" version="1.1">
<g>
<path style=" stroke:none;fill-rule:nonzero;fill:rgb(0%,0%,0%);fill-opacity:1;" d="M 24.023438 16.40625 C 24.5625 16.40625 25 15.96875 25 15.429688 L 25 8.691406 C 25 6.539062 23.246094 4.785156 21.09375 4.785156 L 16.992188 4.785156 L 16.992188 4.6875 C 16.992188 2.535156 15.238281 0.78125 13.085938 0.78125 L 11.816406 0.78125 C 9.664062 0.78125 7.910156 2.535156 7.910156 4.6875 L 7.910156 4.785156 L 3.90625 4.785156 C 1.753906 4.785156 0 6.539062 0 8.691406 L 0 20.3125 C 0 22.464844 1.753906 24.21875 3.90625 24.21875 L 21.09375 24.21875 C 23.246094 24.21875 25 22.464844 25 20.3125 C 25 19.773438 24.5625 19.335938 24.023438 19.335938 C 23.484375 19.335938 23.046875 19.773438 23.046875 20.3125 C 23.046875 21.390625 22.171875 22.265625 21.09375 22.265625 L 3.90625 22.265625 C 2.828125 22.265625 1.953125 21.390625 1.953125 20.3125 L 1.953125 11.53125 C 2.335938 11.90625 2.78125 12.308594 3.289062 12.707031 C 5.742188 14.632812 8.601562 15.738281 11.621094 15.933594 L 11.621094 17.285156 C 11.621094 17.824219 12.058594 18.261719 12.597656 18.261719 C 13.136719 18.261719 13.574219 17.824219 13.574219 17.285156 L 13.574219 15.933594 C 16.589844 15.738281 19.421875 14.628906 21.816406 12.699219 C 22.28125 12.324219 22.691406 11.949219 23.046875 11.59375 L 23.046875 15.429688 C 23.046875 15.96875 23.484375 16.40625 24.023438 16.40625 Z M 9.863281 4.6875 C 9.863281 3.609375 10.738281 2.734375 11.816406 2.734375 L 13.085938 2.734375 C 14.164062 2.734375 15.039062 3.609375 15.039062 4.6875 L 15.039062 4.785156 L 9.863281 4.785156 Z M 12.597656 14.015625 C 9.648438 14.015625 6.941406 13.070312 4.554688 11.214844 C 3.167969 10.136719 2.292969 9.042969 1.957031 8.582031 C 2.011719 7.554688 2.867188 6.738281 3.90625 6.738281 L 21.09375 6.738281 C 22.136719 6.738281 22.996094 7.5625 23.042969 8.59375 C 22.320312 9.628906 18.878906 14.015625 12.597656 14.015625 Z M 12.597656 14.015625 "/>
</g>
</svg>
