<svg xmlns="http://www.w3.org/2000/svg" xmlns:xlink="http://www.w3.org/1999/xlink" width="40px" height="40px" viewBox="0 0 40 40" version="1.1">
<g>
<path style=" stroke:none;fill-rule:nonzero;fill-opacity:1;" d="M 35 3.332031 C 30.523438 3.332031 22.914062 2.226562 21.179688 0.488281 C 20.527344 -0.164062 19.472656 -0.164062 18.820312 0.488281 C 17.085938 2.226562 9.476562 3.332031 5 3.332031 C 4.078125 3.332031 3.332031 4.078125 3.332031 5 L 3.332031 23.332031 C 3.332031 25.578125 5.886719 27.515625 10.394531 30.75 C 13.558594 33.015625 18.332031 36.4375 18.332031 38.332031 C 18.332031 39.253906 19.078125 40 20 40 C 20.921875 40 21.667969 39.253906 21.667969 38.332031 C 21.667969 36.4375 26.441406 33.015625 29.605469 30.75 C 34.113281 27.515625 36.667969 25.578125 36.667969 23.332031 L 36.667969 5 C 36.667969 4.078125 35.921875 3.332031 35 3.332031 Z M 31.667969 22.074219 C 31.667969 22.542969 31.46875 22.988281 31.125 23.300781 C 30.09375 24.246094 28.128906 25.65625 26.691406 26.683594 C 24.765625 28.066406 22.769531 29.492188 21.101562 30.964844 C 20.472656 31.515625 19.527344 31.515625 18.898438 30.964844 C 17.230469 29.492188 15.234375 28.066406 13.308594 26.683594 C 11.871094 25.65625 9.90625 24.246094 8.875 23.300781 C 8.53125 22.988281 8.332031 22.542969 8.332031 22.074219 L 8.332031 9.703125 C 8.332031 8.847656 8.976562 8.132812 9.824219 8.042969 C 11.050781 7.914062 12.246094 7.753906 13.378906 7.554688 C 15.839844 7.132812 17.792969 6.601562 19.347656 5.941406 C 19.765625 5.761719 20.234375 5.761719 20.652344 5.941406 C 22.207031 6.601562 24.160156 7.132812 26.621094 7.554688 C 27.753906 7.75 28.949219 7.914062 30.175781 8.042969 C 31.023438 8.132812 31.667969 8.847656 31.667969 9.703125 Z M 31.667969 22.074219 "/>
<path style=" stroke:none;fill-rule:nonzero;fill-opacity:1;" d="M 17.988281 19.433594 L 14.257812 16.945312 L 12.410156 19.71875 L 17.410156 23.054688 C 18.128906 23.53125 19.09375 23.382812 19.636719 22.707031 L 26.300781 14.375 L 23.699219 12.292969 Z M 17.988281 19.433594 "/>
</g>
</svg>
