<?xml version="1.0" encoding="UTF-8"?>
<svg xmlns="http://www.w3.org/2000/svg" xmlns:xlink="http://www.w3.org/1999/xlink" width="25pt" height="25pt" viewBox="0 0 25 25" version="1.1">
<g id="surface1">
<path style=" stroke:none;fill-rule:nonzero;fill:rgb(0%,0%,0%);fill-opacity:1;" d="M 22.679688 2.789062 L 20.546875 2.789062 L 20.546875 0.65625 C 20.546875 0.292969 20.25 0 19.890625 0 L 2.328125 0 C 1.964844 0 1.671875 0.292969 1.671875 0.65625 L 1.671875 6.238281 C 1.671875 6.597656 1.964844 6.894531 2.328125 6.894531 L 19.890625 6.894531 C 20.25 6.894531 20.546875 6.597656 20.546875 6.238281 L 20.546875 4.101562 L 22.023438 4.101562 L 22.023438 10.832031 L 11.109375 10.832031 C 10.746094 10.832031 10.453125 11.125 10.453125 11.488281 L 10.453125 13.457031 L 9.222656 13.457031 C 8.949219 13.457031 8.730469 13.675781 8.730469 13.949219 L 8.730469 24.515625 C 8.730469 24.789062 8.949219 25.007812 9.222656 25.007812 L 12.996094 25.007812 C 13.269531 25.007812 13.488281 24.789062 13.488281 24.515625 L 13.488281 13.949219 C 13.488281 13.675781 13.269531 13.457031 12.996094 13.457031 L 11.765625 13.457031 L 11.765625 12.144531 L 22.679688 12.144531 C 23.042969 12.144531 23.335938 11.851562 23.335938 11.488281 L 23.335938 3.445312 C 23.335938 3.082031 23.042969 2.789062 22.679688 2.789062 Z M 22.679688 2.789062 "/>
</g>
</svg>
