<?xml version="1.0" encoding="UTF-8"?>
<svg xmlns="http://www.w3.org/2000/svg" xmlns:xlink="http://www.w3.org/1999/xlink" width="25px" height="25px" viewBox="0 0 25 25" version="1.1">
<g>
<path style=" stroke:none;fill-rule:nonzero;fill-opacity:1;" d="M 1.707031 21.027344 L 5.683594 21.027344 L 5.683594 24.4375 C 5.683594 24.605469 5.738281 24.738281 5.84375 24.847656 C 5.949219 24.953125 6.085938 25.007812 6.253906 25.007812 L 9.21875 25.007812 C 9.371094 25.007812 9.503906 24.953125 9.617188 24.847656 C 9.730469 24.738281 9.785156 24.605469 9.785156 24.4375 L 9.785156 21.027344 L 18.753906 21.027344 C 18.921875 21.027344 19.054688 20.976562 19.164062 20.867188 C 19.269531 20.761719 19.324219 20.625 19.324219 20.460938 L 19.324219 18.1875 C 19.324219 18.019531 19.269531 17.882812 19.164062 17.777344 C 19.058594 17.671875 18.921875 17.617188 18.753906 17.617188 L 9.785156 17.617188 L 9.785156 15.523438 L 15.824219 15.523438 C 18.191406 15.523438 20.125 14.800781 21.621094 13.355469 C 23.121094 11.910156 23.871094 10.046875 23.871094 7.761719 C 23.871094 5.476562 23.121094 3.613281 21.621094 2.167969 C 20.125 0.722656 18.191406 0 15.824219 0 L 6.25 0 C 6.085938 0 5.949219 0.0546875 5.84375 0.160156 C 5.738281 0.265625 5.683594 0.402344 5.683594 0.566406 L 5.683594 11.738281 L 1.707031 11.738281 C 1.539062 11.738281 1.402344 11.796875 1.296875 11.90625 C 1.191406 12.019531 1.136719 12.152344 1.136719 12.308594 L 1.136719 14.953125 C 1.136719 15.121094 1.191406 15.253906 1.296875 15.363281 C 1.402344 15.46875 1.539062 15.523438 1.707031 15.523438 L 5.683594 15.523438 L 5.683594 17.617188 L 1.707031 17.617188 C 1.539062 17.617188 1.402344 17.671875 1.296875 17.777344 C 1.191406 17.882812 1.136719 18.019531 1.136719 18.1875 L 1.136719 20.460938 C 1.136719 20.625 1.191406 20.761719 1.296875 20.867188 C 1.402344 20.976562 1.539062 21.027344 1.707031 21.027344 Z M 9.785156 3.785156 L 15.46875 3.785156 C 16.722656 3.785156 17.734375 4.148438 18.503906 4.882812 C 19.273438 5.617188 19.660156 6.578125 19.660156 7.761719 C 19.660156 8.945312 19.273438 9.90625 18.503906 10.636719 C 17.734375 11.371094 16.722656 11.738281 15.46875 11.738281 L 9.785156 11.738281 Z M 9.785156 3.785156 "/>
</g>
</svg>
