<svg xmlns="http://www.w3.org/2000/svg" xmlns:xlink="http://www.w3.org/1999/xlink" width="40px" height="40px" viewBox="0 0 40 40" version="1.1">
<g>
<path style=" stroke:none;fill-rule:nonzero;fill-opacity:1;" d="M 29.289062 9.570312 C 26.207031 6.332031 24.667969 4.511719 26.074219 1.695312 C 26.253906 1.332031 26.234375 0.902344 26.023438 0.554688 C 25.808594 0.210938 25.433594 0 25.027344 0 C 20.652344 0 18.792969 3.628906 17.574219 5.832031 C 16.554688 7.667969 15.871094 8.785156 14.984375 8.785156 C 14.035156 8.785156 13.679688 8.191406 13.644531 7.441406 C 13.667969 6.453125 12.476562 5.902344 11.722656 6.546875 C 7.625 9.941406 3.527344 17.484375 3.769531 23.765625 C 3.769531 32.71875 11.054688 40 20.003906 40 C 28.976562 40 36.238281 32.667969 36.238281 23.765625 C 36.238281 16.882812 32.382812 12.828125 29.289062 9.570312 Z M 20.003906 34.980469 C 13.820312 34.980469 8.792969 29.949219 8.792969 23.765625 C 9.355469 8.910156 30.65625 8.914062 31.21875 23.765625 C 31.21875 29.949219 26.1875 34.980469 20.003906 34.980469 Z M 20.003906 34.980469 "/>
<path style=" stroke:none;fill-rule:nonzero;fill-opacity:1;" d="M 27.535156 22.59375 L 28.796875 22.59375 C 28.589844 21.023438 27.96875 19.582031 27.046875 18.378906 C 25.910156 19.441406 24.332031 17.859375 25.390625 16.722656 C 24.191406 15.800781 22.746094 15.179688 21.175781 14.972656 L 21.175781 16.234375 C 21.175781 16.882812 20.652344 17.40625 20.003906 17.40625 C 19.359375 17.40625 18.832031 16.882812 18.832031 16.234375 L 18.832031 14.972656 C 17.261719 15.183594 15.816406 15.804688 14.617188 16.726562 C 15.53125 17.84375 14.082031 19.289062 12.964844 18.375 C 12.042969 19.578125 11.421875 21.023438 11.210938 22.59375 L 12.472656 22.59375 C 13.121094 22.59375 13.644531 23.117188 13.644531 23.765625 C 13.644531 24.414062 13.121094 24.9375 12.472656 24.9375 L 11.210938 24.9375 C 11.421875 26.511719 12.042969 27.953125 12.964844 29.15625 C 14.082031 28.242188 15.53125 29.6875 14.617188 30.804688 C 15.816406 31.726562 17.261719 32.347656 18.832031 32.558594 L 18.832031 31.296875 C 18.832031 30.648438 19.359375 30.125 20.003906 30.125 C 20.652344 30.125 21.175781 30.648438 21.175781 31.296875 L 21.175781 32.558594 C 22.75 32.347656 24.191406 31.726562 25.394531 30.804688 C 24.480469 29.6875 25.929688 28.242188 27.046875 29.15625 C 27.96875 27.953125 28.589844 26.507812 28.796875 24.9375 L 27.535156 24.9375 C 25.984375 24.878906 25.984375 22.652344 27.535156 22.59375 Z M 23.972656 21.457031 C 23.972656 21.457031 20.832031 24.59375 20.832031 24.59375 C 20.613281 24.8125 20.316406 24.9375 20.003906 24.9375 C 19.695312 24.9375 19.394531 24.8125 19.175781 24.59375 L 17.292969 22.710938 C 16.238281 21.574219 17.8125 19.996094 18.949219 21.054688 C 18.949219 21.054688 20.003906 22.109375 20.003906 22.109375 L 22.316406 19.800781 C 23.453125 18.742188 25.027344 20.316406 23.972656 21.457031 Z M 23.972656 21.457031 "/>
</g>
</svg>
